HIERARCHY
ROOT hip
{
	OFFSET 0.000000 0.000000 0.000000 
	CHANNELS 6 Xposition Yposition Zposition Xrotation Zrotation Yrotation
	JOINT abdomen
	{
		OFFSET 0.000000 3.402643 0.000000 
		CHANNELS 3 Xrotation Zrotation Yrotation
		JOINT chest
		{
			OFFSET 0.000000 8.438565 -0.680529 
			CHANNELS 3 Xrotation Zrotation Yrotation
			JOINT neck
			{
				OFFSET 0.000000 10.207942 -0.272212 
				CHANNELS 3 Xrotation Zrotation Yrotation
				JOINT head
				{
					OFFSET 0.000000 3.130431 0.000000 
					CHANNELS 3 Xrotation Zrotation Yrotation
					End Site
					{
						OFFSET 0.000000 3.130435 0.000000 
					}
				}
			}
			JOINT lCollar
			{
				OFFSET 3.470700 6.669187 -0.816635 
				CHANNELS 3 Yrotation Zrotation Xrotation
				JOINT lShldr
				{
					OFFSET 3.198488 0.000000 0.000000 
					CHANNELS 3 Zrotation Yrotation Xrotation
					JOINT lForeArm
					{
						OFFSET 10.139888 0.000000 0.000000 
						CHANNELS 3 Yrotation Zrotation Xrotation
						JOINT lHand
						{
							OFFSET 8.370511 0.000000 0.000000 
							CHANNELS 3 Zrotation Yrotation Xrotation
							End Site
							{
								OFFSET 4.083176 0.000000 0.000000 
							}
						}
					}
				}
			}
			JOINT rCollar
			{
				OFFSET -3.470700 6.669187 -0.816635 
				CHANNELS 3 Yrotation Zrotation Xrotation
				JOINT rShldr
				{
					OFFSET -3.198488 0.000000 0.000000 
					CHANNELS 3 Zrotation Yrotation Xrotation
					JOINT rForeArm
					{
						OFFSET -10.139888 0.000000 0.000000 
						CHANNELS 3 Yrotation Zrotation Xrotation
						JOINT rHand
						{
							OFFSET -8.370511 0.000000 0.000000 
							CHANNELS 3 Zrotation Yrotation Xrotation
							End Site
							{
								OFFSET -4.083176 0.000000 0.000000 
							}
						}
					}
				}
			}
		}
	}
	JOINT lThigh
	{
		OFFSET 5.308129 -1.633274 1.361059 
		CHANNELS 3 Xrotation Zrotation Yrotation
		JOINT lShin
		{
			OFFSET -2.041588 -20.007561 0.000000 
			CHANNELS 3 Xrotation Zrotation Yrotation
			JOINT lFoot
			{
				OFFSET 0.000000 -19.190928 -1.224953 
				CHANNELS 3 Xrotation Yrotation Zrotation
				End Site
				{
					OFFSET 0.000000 -2.449906 4.627600 
				}
			}
		}
	}
	JOINT rThigh
	{
		OFFSET -5.308129 -1.633274 1.361059 
		CHANNELS 3 Xrotation Zrotation Yrotation
		JOINT rShin
		{
			OFFSET 2.041588 -20.007561 0.000000 
			CHANNELS 3 Xrotation Zrotation Yrotation
			JOINT rFoot
			{
				OFFSET 0.000000 -19.190928 -1.224953 
				CHANNELS 3 Xrotation Yrotation Zrotation
				End Site
				{
					OFFSET 0.000000 -2.449906 4.627600 
				}
			}
		}
	}
}
MOTION
Frames: 20
Frame Time: 0.016667
-32.153221 50.663582 -32.645237 -2.470703 0.351565 48.329929 24.072268 -0.263672 -4.960982 -13.593750 8.935546 -3.846139 -26.464844 -2.392578 2.030843 21.777342 -0.078125 1.152344 17.441406 -10.898437 -0.017685 -70.146484 -0.576172 22.216761 -42.500000 3.310547 41.513672 -7.470703 19.052734 -2.369859 -15.097657 3.105469 -0.078125 59.707035 -2.109375 25.751593 41.123051 -3.349610 37.383381 -8.662109 -4.316407 0.516843 1.822818 1.938788 18.050016 21.697899 -1.446830 -1.599123 -1.782621 25.435837 -10.704413 -14.009745 -12.066012 -7.540841 17.656815 1.434941 0.862324 9.653193 -5.027547 12.437568 
-32.129726 50.661530 -32.626320 -2.470703 0.351565 48.329929 24.072268 -0.263672 -4.960982 -13.417969 8.935546 -3.671875 -26.464844 -2.392578 2.030843 21.777342 -0.078125 1.152344 17.441406 -10.898437 -0.017685 -70.126953 -0.498047 22.714758 -42.617188 3.320313 41.747478 -7.529296 18.847656 -2.535908 -15.097657 3.105469 -0.078125 59.638672 -2.119140 25.654295 41.250000 -3.339844 37.246090 -8.662109 -4.316407 0.516843 1.822818 1.938788 18.050016 21.697899 -1.446830 -1.599123 -1.782623 25.435837 -10.704414 -14.009745 -12.066012 -7.540841 17.656815 1.434940 0.862324 9.653192 -5.027547 12.437569 
-32.109970 50.660332 -32.610176 -2.470703 0.351565 48.505711 24.072266 -0.312500 -4.794975 -13.417969 8.935546 -3.671875 -26.464844 -2.216797 2.021107 21.777342 -0.078125 1.152344 17.441406 -10.898437 -0.017685 -70.117188 -0.410156 23.212795 -42.363281 3.447265 41.865231 -7.695313 18.671875 -2.539063 -15.097657 3.105469 -0.078125 59.775391 -2.031250 25.458637 41.250000 -3.339844 37.246090 -8.662109 -4.492188 0.516813 1.822819 1.938791 18.050016 21.697901 -1.446832 -1.599123 -1.818502 25.115986 -10.850382 -14.009742 -12.066016 -7.540840 17.656815 1.434939 0.862324 9.479071 -5.246730 12.557546 
-32.094070 50.660210 -32.596684 -2.470703 0.351565 48.681496 24.072266 -0.312500 -4.794975 -13.417969 8.935546 -3.671875 -26.464844 -2.216797 2.021107 21.777342 -0.078125 0.976563 17.441406 -10.898437 -0.017685 -70.146484 -0.283203 23.515608 -42.109375 3.476563 42.138676 -8.046876 18.652346 -2.539063 -15.097657 3.281250 -0.039063 59.775391 -2.031250 25.458637 41.386723 -3.339844 37.109943 -8.662109 -4.492188 0.516813 1.824264 1.960644 17.874943 21.697901 -1.446841 -1.599125 -1.846380 25.104008 -10.849354 -14.009747 -12.066011 -7.540841 18.009676 1.425231 0.888861 9.598900 -5.585556 12.279358 
-32.081665 50.661049 -32.586201 -2.470703 0.351565 48.857277 24.072266 -0.312500 -4.794975 -13.417969 8.935546 -3.671875 -26.474609 -2.226563 1.845324 21.601561 -0.263672 0.986328 17.441406 -10.898437 -0.017685 -70.117188 -0.166016 23.769506 -41.640625 3.408203 42.460064 -8.281250 18.623045 -2.763672 -15.097657 3.281250 -0.039063 59.697266 -2.031250 25.380514 41.386723 -3.339844 37.109943 -8.662109 -4.492188 0.516813 1.824271 1.960644 17.874941 21.697901 -1.446833 -1.599123 -1.477837 24.963436 -10.977680 -13.668012 -12.095174 -8.091029 18.021723 1.220217 1.191972 9.663880 -5.557006 12.826243 
-32.072628 50.662979 -32.578609 -2.470703 0.351565 48.857277 24.248045 -0.478516 -4.843751 -13.417969 8.935546 -3.496094 -26.474609 -2.226563 1.845324 21.601561 -0.263672 0.986328 17.265625 -10.898437 -0.046982 -70.185547 0.009766 23.886719 -41.171875 3.339844 42.792400 -8.457032 18.613281 -2.763672 -15.087892 3.320313 -0.205078 59.697266 -2.031250 25.380514 41.523438 -3.232422 37.119686 -8.486328 -4.501953 0.517578 1.834093 1.970651 17.698477 21.697899 -1.446855 -1.599127 -1.460215 25.036547 -11.123331 -13.668010 -12.095177 -8.091029 18.021723 1.220217 1.191972 9.484060 -5.577790 12.809406 
-32.066483 50.665508 -32.574036 -2.470703 0.351565 49.033058 24.248045 -0.478516 -4.843751 -13.417969 8.759767 -3.496094 -26.484375 -2.236328 1.669541 21.601561 -0.263672 0.810547 17.265625 -10.898437 -0.046982 -70.117188 0.166016 23.886759 -40.566410 3.398438 43.105473 -8.623046 18.603518 -2.750790 -15.087892 3.496094 -0.166016 59.697266 -2.031250 25.380514 41.523438 -3.232422 37.119686 -8.486328 -4.501953 0.517578 2.077706 2.077763 17.697536 21.697899 -1.446848 -1.599126 -1.439545 24.969219 -10.961416 -13.715418 -12.308283 -8.077375 18.021723 1.220216 1.191972 9.446832 -5.872242 12.735670 
-32.062988 50.668400 -32.571987 -2.470703 0.351565 49.208836 24.248045 -0.527344 -4.677735 -13.593751 8.759767 -3.496094 -26.484377 -2.060547 1.660156 21.601561 -0.263672 0.810547 17.265625 -10.898437 -0.046982 -70.146484 0.371094 23.759789 -39.843746 3.593750 43.427120 -8.681641 18.574219 -2.919922 -15.087892 3.496094 -0.166016 59.697266 -2.031250 25.380514 41.523438 -3.232422 37.119686 -8.310547 -4.501953 0.516812 2.074331 1.896950 17.504490 21.697899 -1.446873 -1.599130 -1.574909 24.960075 -10.917636 -13.715418 -12.308283 -8.077374 18.021723 1.220222 1.191973 9.456816 -5.854129 12.720560 
-32.061783 50.671291 -32.572346 -2.470703 0.351565 49.384621 24.423828 -0.527344 -4.677734 -13.593751 8.759767 -3.496094 -26.484375 -2.080078 1.484020 21.601563 -0.087891 0.634751 17.265625 -10.898437 -0.046982 -70.292969 0.302734 23.378958 -39.150391 3.457031 43.828121 -8.857422 18.574219 -2.916810 -15.087892 3.496094 -0.166016 59.570316 -1.972656 25.487947 41.621098 -3.349610 37.207603 -8.310547 -4.501953 0.516812 2.088502 1.903404 17.327421 21.512064 -1.446824 -1.589449 -1.595178 25.021393 -11.092564 -13.511060 -12.269999 -8.087973 18.022346 1.210453 1.190626 9.614886 -6.020008 12.878095 
-32.062263 50.673943 -32.574757 -2.470703 0.351565 49.560398 24.423828 -0.527344 -4.677734 -13.593751 8.759767 -3.496094 -26.494141 -2.089844 1.308238 21.601563 -0.087891 0.458969 17.265625 -10.898437 -0.046982 -70.195313 0.498047 23.134794 -38.310547 3.544922 44.072266 -8.867188 18.740234 -2.919922 -15.087892 3.662110 -0.117187 59.570316 -1.972656 25.487947 41.621098 -3.349610 37.207603 -8.134767 -4.326172 0.517578 1.854439 1.991957 17.168682 21.513556 -1.622671 -1.794719 -1.409749 25.137403 -10.897799 -13.511062 -12.269996 -8.087975 18.022346 1.210454 1.190627 9.446792 -6.023571 12.875597 
-32.064434 50.676109 -32.578976 -2.470703 0.527348 49.736210 24.423828 -0.693359 -4.716797 -13.603515 8.583984 -3.318855 -26.494141 -2.089844 1.308238 21.601563 -0.087891 0.458969 17.265625 -10.898437 -0.046982 -70.214844 0.585938 22.695412 -37.607426 3.525390 44.345695 -8.867188 18.740234 -2.919922 -15.087892 3.662110 -0.117187 59.570316 -1.972656 25.487947 41.621098 -3.349610 37.207603 -8.134767 -4.326172 0.517578 1.860159 2.014648 16.816654 21.547789 -1.447014 -1.416209 -1.535550 24.970842 -10.974351 -13.452077 -12.386742 -7.712169 18.008919 1.435177 0.890231 9.756299 -6.302175 12.821144 
-32.068047 50.677677 -32.584396 -2.470703 0.527348 49.921761 24.423828 -0.693359 -4.716797 -13.603515 8.583984 -3.318855 -26.503906 -2.109375 1.132453 21.601563 -0.087891 0.458969 17.080076 -10.898437 -0.087891 -70.244141 0.664063 22.255974 -36.894531 3.603516 44.472042 -8.876953 18.916014 -2.916756 -15.087892 3.662110 -0.117187 59.492184 -1.982422 25.400391 41.718750 -3.378906 37.441978 -8.134767 -4.326172 0.517578 1.860148 2.014647 16.816652 21.512058 -1.446880 -1.589459 -1.556792 24.863863 -11.239679 -13.542738 -12.487567 -8.252196 18.021723 1.220214 1.191972 9.598982 -6.108795 12.842378 
-32.072865 50.678638 -32.591141 -2.470703 0.527348 50.087776 24.599611 -0.742188 -4.550908 -13.603515 8.583984 -3.318855 -26.503906 -1.933594 1.122717 21.601563 -0.087891 0.283188 17.080076 -10.898437 -0.087891 -70.273438 0.585938 21.767578 -36.308594 3.554688 44.618530 -8.710938 19.101561 -2.919922 -15.087892 3.662110 -0.117187 59.628910 -2.041016 25.292622 41.718750 -3.378906 37.441978 -8.124999 -4.150391 0.516873 1.854180 1.825143 16.790363 21.525227 -1.447072 -1.765567 -1.539023 24.955614 -10.991805 -13.542735 -12.487569 -8.252195 18.021723 1.220224 1.191973 9.601217 -6.104119 12.854607 
-32.078892 50.678879 -32.598854 -2.285156 0.527344 50.097698 24.599611 -0.742188 -4.550908 -13.603515 8.583984 -3.318855 -26.513670 -1.943359 0.946934 21.601563 -0.087891 0.283188 17.080078 -10.722657 -0.134902 -70.312500 0.664063 21.337891 -35.712891 3.515625 44.765030 -8.720703 19.277346 -2.919922 -15.087892 3.837891 -0.068359 59.550781 -2.050781 25.205076 41.728516 -3.271484 37.587891 -8.124999 -4.150391 0.516873 1.854167 1.825147 16.790365 21.525227 -1.447067 -1.765567 -1.724162 24.950905 -10.969660 -13.463552 -12.574170 -8.241116 18.021723 1.220215 1.191972 9.397521 -6.298490 12.797147 
-32.086002 50.678638 -32.607288 -2.285156 0.527344 50.273483 24.599611 -0.742188 -4.550908 -13.603515 8.408203 -3.318885 -26.513670 -1.943359 0.946934 21.601563 -0.087891 0.107407 17.080078 -10.722657 -0.134902 -70.361320 0.585938 20.849709 -35.244141 3.447266 44.765621 -8.720703 19.277346 -2.919922 -15.087892 3.837891 -0.068359 59.550781 -2.050781 25.205076 41.826172 -3.398438 37.666595 -8.124999 -4.150391 0.516873 1.854174 1.825145 16.790363 21.512058 -1.446891 -1.589461 -1.553656 24.791660 -11.065271 -13.463553 -12.574172 -8.241115 18.015951 1.396295 1.040846 9.523174 -6.513492 12.748025 
-32.094189 50.677914 -32.616562 -2.285156 0.527344 50.273483 24.599611 -0.742188 -4.550908 -13.603515 8.408203 -3.318885 -26.513670 -1.943359 0.946934 21.601563 0.087891 0.107437 17.080078 -10.722657 -0.134902 -70.292969 0.625000 20.556747 -34.882813 3.486328 44.843155 -8.730468 19.453127 -2.916668 -15.087892 3.837891 -0.068359 59.482422 -2.060547 25.116838 41.826168 -3.291015 37.812500 -8.124999 -3.974609 0.516903 1.863378 1.843783 16.624508 21.512058 -1.446899 -1.589462 -1.727198 24.790527 -11.025675 -13.463553 -12.574173 -8.241116 18.015951 1.396295 1.040846 9.523174 -6.513492 12.748024 
-32.103592 50.676830 -32.626560 -2.285156 0.527344 50.449268 24.599611 -0.742188 -4.550908 -13.603515 8.408203 -3.318885 -26.513672 -1.953125 0.771484 21.601563 0.087891 0.107437 17.119141 -10.673829 0.029297 -70.292969 0.673828 20.312616 -34.521484 3.535156 44.921268 -8.730468 19.453127 -2.916668 -14.912109 3.837891 -0.078125 59.609375 -2.119141 25.009405 41.826168 -3.291015 37.812500 -7.949219 -3.974609 0.517578 1.715817 1.880596 16.634415 21.512056 -1.446894 -1.589462 -1.602343 24.798399 -10.999537 -13.660925 -12.596216 -8.417885 18.022346 1.210449 1.190626 9.549411 -6.517253 12.929571 
-32.114071 50.675625 -32.637165 -2.285156 0.527344 50.449268 24.599611 -0.742188 -4.550908 -13.603515 8.408203 -3.143103 -26.513672 -1.777344 0.761719 21.601563 0.087891 0.107437 17.119141 -10.673829 0.029297 -70.292969 0.712891 20.068481 -34.521484 3.535156 44.921268 -8.730468 19.453127 -2.916668 -14.912109 3.837891 -0.078125 59.609375 -2.119141 25.009405 41.826168 -3.291015 37.812500 -7.949219 -3.974609 0.517578 1.715817 1.880596 16.634415 21.512056 -1.446895 -1.589462 -1.602343 24.798399 -10.999537 -13.697342 -12.817553 -8.403789 18.022345 1.210461 1.190628 9.571611 -6.451144 12.939248 
-32.125633 50.674061 -32.648487 -2.285156 0.527344 50.625046 24.599611 -0.742188 -4.550908 -13.603515 8.408203 -3.143103 -26.513672 -1.777344 0.761719 21.777342 0.097656 -0.078125 17.119141 -10.673829 0.029297 -70.234375 0.712891 20.009766 -34.277344 3.544922 44.843750 -8.730468 19.453127 -2.916668 -14.912109 3.837891 -0.078125 59.609375 -2.119141 25.009405 41.826172 -3.398438 37.666595 -7.949219 -3.974609 0.517578 1.725531 1.890410 16.457924 21.697893 -1.446976 -1.599147 -1.622478 24.630474 -11.065260 -13.697346 -12.817546 -8.403788 18.198759 1.210471 1.189611 9.547306 -6.572347 12.914276 
-32.138161 50.672493 -32.660294 -2.285156 0.527344 50.625046 24.599611 -0.742188 -4.550908 -13.603515 8.408203 -3.143103 -26.523438 -1.796875 0.585938 21.777342 0.097656 -0.078125 17.119141 -10.673829 0.029297 -70.351563 0.751953 19.892618 -34.394535 3.505859 44.697269 -8.730468 19.453127 -2.916668 -14.912109 3.837891 -0.078125 59.609375 -2.119141 25.009405 41.826172 -3.398438 37.666595 -7.949219 -3.974609 0.517578 1.725531 1.890410 16.457924 21.697893 -1.446976 -1.599147 -1.622481 24.630474 -11.065260 -13.649920 -12.584901 -8.585087 18.198759 1.210467 1.189610 9.544860 -6.451158 12.755754 
